# Aspose.3D Wavefront OBJ Exporter
# Copyright 2004-2023 Aspose Pty Ltd.
# File created: 06/04/2023 08:31:01

mtllib material.lib

#
# object WraithMesh_9e61ec70_00
#

v -8.31861299999999916 0 -30.8371679999999984
v 61.23047300000000348 0 -30.8371679999999984
v -8.31861299999999916 -0 37.61947299999999928
v 61.23047300000000348 -0 37.61947299999999928
v -8.31861299999999916 0 -30.8371679999999984
v -8.31861299999999916 -0 37.61947299999999928
v 61.23047300000000348 0 -30.8371679999999984
v 61.23047300000000348 -0 37.61947299999999928
# 8 vertices

vn 0 1 0
vn 0 1 0
vn 0 1 0
vn 0 1 0
vn 0 1 0
vn 0 1 0
vn 0 -1 0
vn 0 -1 0
vn 0 -1 0
vn 0 -1 0
vn 0 -1 0
vn 0 -1 0
# 12 vertex normals

vt 0 0 0
vt 1 0 0
vt 0 1 0
vt 1 1 0
vt 0 0 0
vt 0 1 0
vt 1 0 0
vt 1 1 0
# 8 texture coords

g WraithMesh_9e61ec70_00
usemtl mat_26522095
s 1
f 3/3/1 2/2/2 1/1/3
f 3/3/4 4/4/5 2/2/6
f 7/7/7 6/6/8 5/5/9
f 7/7/10 8/8/11 6/6/12
#4 polygons

