# Aspose.3D Wavefront OBJ Exporter
# Copyright 2004-2023 Aspose Pty Ltd.
# File created: 06/04/2023 08:39:57

mtllib material.lib

#
# object WraithMesh_b91c09a2_00
#

v -26.98444699999999936 0 -11.77020800000000016
v -26.98444699999999936 -0 19.55438799999999944
v 89.86506699999999632 0 -11.77020800000000016
v 89.86506699999999632 -0 19.55438799999999944
v -26.98444699999999936 0 -11.77020800000000016
v 89.86506699999999632 0 -11.77020800000000016
v -26.98444699999999936 -0 19.55438799999999944
v 89.86506699999999632 -0 19.55438799999999944
# 8 vertices

vn 0 -1 0
vn 0 -1 0
vn 0 -1 0
vn 0 -1 0
vn 0 -1 0
vn 0 -1 0
vn 0 1 0
vn 0 1 0
vn 0 1 0
vn 0 1 0
vn 0 1 0
vn 0 1 0
# 12 vertex normals

vt 0 0 0
vt 0 1 0
vt 1 0 0
vt 1 1 0
vt 0 0 0
vt 1 0 0
vt 0 1 0
vt 1 1 0
# 8 texture coords

g WraithMesh_b91c09a2_00
usemtl mat_63239375
s 1
f 3/3/1 2/2/2 1/1/3
f 3/3/4 4/4/5 2/2/6
f 7/7/7 6/6/8 5/5/9
f 7/7/10 8/8/11 6/6/12
#4 polygons

