# Aspose.3D Wavefront OBJ Exporter
# Copyright 2004-2023 Aspose Pty Ltd.
# File created: 06/04/2023 08:26:06

mtllib material.lib

#
# object WraithMesh_b95748f0_00
#

v -29.2241250000000008 0 -12.43824500000000024
v 83.4877929999999964 0 -12.43824500000000024
v -29.2241250000000008 -0 18.13910299999999864
v 83.4877929999999964 -0 18.13910299999999864
v -29.2241250000000008 0 -12.43824500000000024
v -29.2241250000000008 -0 18.13910299999999864
v 83.4877929999999964 0 -12.43824500000000024
v 83.4877929999999964 -0 18.13910299999999864
# 8 vertices

vn 0 1 0
vn 0 1 0
vn 0 1 0
vn 0 1 0
vn 0 1 0
vn 0 1 0
vn 0 -1 0
vn 0 -1 0
vn 0 -1 0
vn 0 -1 0
vn 0 -1 0
vn 0 -1 0
# 12 vertex normals

vt 0 0 0
vt 1 0 0
vt 0 1 0
vt 1 1 0
vt 0 0 0
vt 0 1 0
vt 1 0 0
vt 1 1 0
# 8 texture coords

g WraithMesh_b95748f0_00
usemtl mat_39247142
s 1
f 3/3/1 2/2/2 1/1/3
f 3/3/4 4/4/5 2/2/6
f 7/7/7 6/6/8 5/5/9
f 7/7/10 8/8/11 6/6/12
#4 polygons

